# WaveFront *.obj file (generated by CINEMA 4D)

mtllib table.mtl

v -50 25 -84.90884399414062
v -50 35 -84.90884399414062
v 50 25 -84.90884399414062
v 50 35 -84.90884399414062
v 50 25 -94.90884399414062
v 50 35 -94.90884399414062
v -50 25 -94.90884399414062
v -50 35 -94.90884399414062
# 8 vertices

vt 0.000000 1.000000
vt 1.000000 1.000000
vt 1.000000 -0.000000
vt 0.000000 -0.000000

vn 0 0 1
vn 1 0 0
vn 0 0 -1
vn -1 0 0
vn 0 1 0
vn 0 -1 0
# 6 normals

o Stütze
usemtl Mat.1
f 3/1/1 4/2/1 2/3/1 1/4/1
f 5/1/2 6/2/2 4/3/2 3/4/2
f 7/2/3 8/1/3 6/4/3 5/3/3
f 1/2/4 2/1/4 8/4/4 7/3/4
f 4/5/5 6/1/5 8/2/5 2/3/5
f 5/6/6 3/2/6 1/1/6 7/4/6

v -50 25 94.41403961181641
v -50 35 94.41403961181641
v 50 25 94.41403961181641
v 50 35 94.41403961181641
v 50 25 84.41403961181641
v 50 35 84.41403961181641
v -50 25 84.41403961181641
v -50 35 84.41403961181641
# 8 vertices

# 0 normal

o Stütze_1
usemtl Mat.1
f 11/1/1 12/2/1 10/3/1  9/4/1
f 13/1/2 14/2/2 12/3/2 11/4/2
f 15/2/3 16/1/3 14/4/3 13/3/3
f  9/2/4 10/1/4 16/4/4 15/3/4
f 12/5/5 14/1/5 16/2/5 10/3/5
f 13/6/6 11/2/6  9/1/6 15/4/6

v -5 25 90
v -5 35 90
v 5 25 90
v 5 35 90
v 5 25 -90
v 5 35 -90
v -5 25 -90
v -5 35 -90
# 8 vertices

# 0 normal

o Stütze_2
usemtl Mat.1
f 19/1/1 20/2/1 18/3/1 17/4/1
f 21/1/2 22/2/2 20/3/2 19/4/2
f 23/2/3 24/1/3 22/4/3 21/3/3
f 21/6/6 19/2/6 17/1/6 23/4/6

usemtl Mat
f 17/2/4 18/1/4 24/4/4 23/3/4
f 20/5/5 22/1/5 24/2/5 18/3/5

v -70 47.51758575439453 110
v -70 52.51758575439453 110
v 70 47.51758575439453 110
v 70 52.51758575439453 110
v 70 47.51758575439453 -110
v 70 52.51758575439453 -110
v -70 47.51758575439453 -110
v -70 52.51758575439453 -110
# 8 vertices

# 0 normal

o Platte
usemtl Mat
f 27/1/1 28/2/1 26/3/1 25/4/1
f 31/1/3 32/2/3 30/3/3 29/4/3
f 28/2/5 30/1/5 32/4/5 26/3/5
f 29/2/6 27/1/6 25/4/6 31/3/6

usemtl Mat.1
f 29/5/2 30/1/2 28/2/2 27/3/2
f 25/6/4 26/2/4 32/1/4 31/4/4

v -60 -50 95
v -60 50 95
v -50 -50 95
v -50 50 95
v -50 -50 85
v -50 50 85
v -60 -50 85
v -60 50 85
# 8 vertices

# 0 normal

o Bein
usemtl Mat
f 35/1/1 36/2/1 34/3/1 33/4/1
f 37/1/2 38/2/2 36/3/2 35/4/2
f 39/2/3 40/1/3 38/4/3 37/3/3
f 33/2/4 34/1/4 40/4/4 39/3/4
f 36/5/5 38/1/5 40/2/5 34/3/5
f 37/6/6 35/2/6 33/1/6 39/4/6

v 50 -50 95
v 50 50 95
v 60 -50 95
v 60 50 95
v 60 -50 85
v 60 50 85
v 50 -50 85
v 50 50 85
# 8 vertices

# 0 normal

o Bein_1
usemtl Mat
f 43/1/1 44/2/1 42/3/1 41/4/1
f 45/1/2 46/2/2 44/3/2 43/4/2
f 47/2/3 48/1/3 46/4/3 45/3/3
f 41/2/4 42/1/4 48/4/4 47/3/4
f 44/5/5 46/1/5 48/2/5 42/3/5
f 45/6/6 43/2/6 41/1/6 47/4/6

v -60 -50 -85
v -60 50 -85
v -50 -50 -85
v -50 50 -85
v -50 -50 -95
v -50 50 -95
v -60 -50 -95
v -60 50 -95
# 8 vertices

# 0 normal

o Bein_2
usemtl Mat
f 51/1/1 52/2/1 50/3/1 49/4/1
f 53/1/2 54/2/2 52/3/2 51/4/2
f 55/2/3 56/1/3 54/4/3 53/3/3
f 49/2/4 50/1/4 56/4/4 55/3/4
f 52/5/5 54/1/5 56/2/5 50/3/5
f 53/6/6 51/2/6 49/1/6 55/4/6

v 50 -50 -85
v 50 50 -85
v 60 -50 -85
v 60 50 -85
v 60 -50 -95
v 60 50 -95
v 50 -50 -95
v 50 50 -95
# 8 vertices

# 0 normal

o Bein_3
usemtl Mat
f 59/1/1 60/2/1 58/3/1 57/4/1
f 61/1/2 62/2/2 60/3/2 59/4/2
f 63/2/3 64/1/3 62/4/3 61/3/3
f 57/2/4 58/1/4 64/4/4 63/3/4
f 60/5/5 62/1/5 64/2/5 58/3/5
f 61/6/6 59/2/6 57/1/6 63/4/6

